<svg width="15" height="15" viewBox="0 0 15 15" fill="none" xmlns="http://www.w3.org/2000/svg">
<path fill-rule="evenodd" clip-rule="evenodd" d="M10.5 6.01402C10.5 6.60496 10.3836 7.19013 10.1574 7.73609C9.93133 8.28206 9.59983 8.77813 9.18203 9.19602C8.76413 9.61382 8.26806 9.94532 7.72209 10.1715C7.17613 10.3976 6.59097 10.514 6.00002 10.514C5.40907 10.514 4.82391 10.3976 4.27794 10.1715C3.73198 9.94532 3.2359 9.61382 2.81804 9.19602C2.40017 8.77813 2.06871 8.28206 1.84256 7.73609C1.61641 7.19013 1.50002 6.60496 1.50002 6.01402C1.50002 4.82054 1.97412 3.67595 2.81804 2.83204C3.66195 1.98812 4.80654 1.51402 6.00002 1.51402C7.19349 1.51402 8.33808 1.98812 9.18203 2.83204C10.0259 3.67595 10.5 4.82054 10.5 6.01402ZM9.68003 10.754C8.4744 11.69 6.95739 12.1313 5.43782 11.9881C3.91825 11.845 2.51036 11.1281 1.50077 9.98342C0.491174 8.83873 -0.0442261 7.35231 0.00355385 5.82677C0.0513439 4.30122 0.678724 2.85122 1.75797 1.77197C2.83723 0.692717 4.28722 0.0653365 5.81277 0.0175465C7.33832 -0.0302365 8.82473 0.505167 9.96943 1.51477C11.1141 2.52436 11.831 3.93225 11.9741 5.45182C12.1173 6.97138 11.676 8.48839 10.74 9.69402L13.78 12.734C13.8537 12.8027 13.9128 12.8855 13.9538 12.9775C13.9948 13.0695 14.0168 13.1688 14.0186 13.2695C14.0204 13.3702 14.0018 13.4702 13.9641 13.5636C13.9264 13.657 13.8702 13.7418 13.799 13.813C13.7278 13.8843 13.643 13.9404 13.5496 13.9781C13.4562 14.0158 13.3562 14.0344 13.2555 14.0326C13.1548 14.0308 13.0554 14.0088 12.9635 13.9678C12.8715 13.9268 12.7887 13.8677 12.72 13.794L9.68003 10.754Z" fill="#1F2A33"/>
</svg>
